<?xml version="1.0" standalone="no"?>
<!DOCTYPE svg PUBLIC "-//W3C//DTD SVG 20010904//EN"
 "http://www.w3.org/TR/2001/REC-SVG-20010904/DTD/svg10.dtd">
<svg version="1.0" xmlns="http://www.w3.org/2000/svg"
 width="553.000000pt" height="525.000000pt" viewBox="0 0 553.000000 525.000000"
 preserveAspectRatio="xMidYMid meet">

<g transform="translate(0.000000,525.000000) scale(0.100000,-0.100000)"
fill="#000000" stroke="none">
<path d="M2606 5151 c-3 -4 1 -63 10 -131 8 -67 13 -127 12 -132 -2 -5 -42 46
-88 114 -77 110 -89 123 -118 126 -21 2 -34 -2 -38 -11 -5 -14 19 -252 32
-319 5 -27 36 -39 48 -20 2 4 -2 61 -10 126 -8 65 -14 126 -12 134 2 8 45 -44
96 -117 91 -128 108 -143 141 -122 11 7 11 31 -3 152 -24 203 -25 209 -47 209
-10 0 -20 -4 -23 -9z"/>
<path d="M2775 5058 c-3 -57 -5 -137 -3 -178 l3 -75 73 -3 c138 -6 202 52 202
182 0 121 -61 175 -197 176 l-71 0 -7 -102z m166 46 c36 -18 59 -67 59 -124 0
-91 -47 -140 -135 -140 l-45 0 0 103 c0 56 3 119 6 140 6 35 8 37 46 37 21 0
53 -7 69 -16z"/>
<path d="M3286 5121 c-11 -18 -85 -335 -80 -343 3 -4 13 -8 23 -8 16 0 24 23
51 133 18 72 36 138 40 145 3 7 15 -59 25 -147 16 -137 21 -162 37 -167 10 -3
22 -3 28 1 5 3 48 60 96 126 47 66 88 118 90 116 3 -3 -9 -62 -26 -132 -36
-153 -36 -157 -8 -153 19 3 26 20 60 153 20 83 38 160 38 171 0 20 -22 33 -57
34 -7 0 -53 -55 -102 -122 -55 -73 -92 -116 -95 -107 -3 8 -12 74 -22 146 -9
73 -22 137 -28 141 -18 15 -64 23 -70 13z"/>
<path d="M2214 5086 c-3 -8 9 -68 27 -134 19 -74 29 -130 25 -146 -8 -32 -56
-58 -98 -54 -44 4 -63 36 -99 166 -31 109 -48 137 -70 115 -7 -7 1 -52 25
-139 43 -157 67 -188 144 -188 61 0 110 28 137 76 17 33 18 42 7 95 -23 111
-62 223 -78 223 -8 0 -17 -6 -20 -14z"/>
<path d="M1732 4933 c-18 -8 -46 -31 -63 -51 -29 -33 -31 -39 -27 -102 3 -53
10 -78 34 -116 53 -86 114 -111 192 -78 79 33 119 99 108 177 -9 57 -60 144
-99 167 -39 24 -100 25 -145 3z m126 -57 c50 -45 82 -140 63 -189 -13 -34 -66
-67 -107 -67 -87 0 -160 172 -103 244 22 28 72 47 104 39 11 -3 31 -15 43 -27z"/>
<path d="M3785 4931 c-42 -25 -61 -49 -86 -105 -29 -66 -30 -136 -3 -173 48
-64 149 -92 214 -58 87 45 138 203 90 280 -40 65 -153 94 -215 56z m120 -35
c72 -30 84 -109 31 -200 -36 -61 -76 -82 -128 -67 -56 17 -78 46 -78 100 1 62
43 140 90 163 42 22 42 22 85 4z"/>
<path d="M4137 4763 c-14 -21 -54 -85 -91 -142 -36 -58 -66 -110 -66 -116 0
-14 96 -72 140 -85 48 -14 97 9 116 56 13 30 13 43 4 63 -8 19 -9 26 0 29 6 2
24 15 39 28 61 51 45 112 -44 169 -31 19 -60 35 -65 35 -5 0 -20 -17 -33 -37z
m121 -87 c4 -31 -22 -66 -49 -66 -20 0 -79 31 -79 42 0 4 12 27 27 52 l27 44
35 -23 c25 -15 37 -31 39 -49z m-113 -88 c43 -25 56 -52 43 -91 -14 -40 -51
-45 -105 -16 -23 13 -43 27 -43 32 0 9 59 97 65 97 2 0 20 -10 40 -22z"/>
<path d="M1377 4734 c-31 -19 -57 -40 -57 -46 0 -22 182 -298 196 -298 30 0
25 32 -15 95 l-42 66 33 13 c39 17 62 10 129 -40 42 -31 51 -34 71 -23 22 12
22 12 -17 45 -22 19 -59 43 -82 55 -24 11 -43 22 -43 24 0 2 4 15 10 29 11 30
0 66 -30 96 -32 32 -85 26 -153 -16z m133 -45 c6 -11 8 -28 5 -39 -7 -22 -51
-60 -70 -60 -12 0 -65 78 -65 95 0 3 19 14 42 25 46 20 69 15 88 -21z"/>
<path d="M4327 4479 c-89 -115 -106 -143 -97 -154 7 -8 16 -15 21 -15 12 0
219 270 219 285 0 10 -23 27 -33 25 -1 -1 -51 -64 -110 -141z"/>
<path d="M1180 4584 c-113 -49 -154 -167 -91 -266 49 -78 114 -109 196 -94 40
8 108 64 131 108 15 29 14 31 -23 75 -21 25 -45 55 -54 66 -11 13 -21 17 -30
12 -34 -20 -89 -71 -89 -82 0 -24 21 -23 53 1 l33 26 33 -34 c37 -38 36 -58
-3 -95 -25 -24 -81 -37 -118 -28 -61 16 -123 117 -110 182 6 36 56 82 103 96
42 13 46 18 27 37 -15 15 -15 15 -58 -4z"/>
<path d="M4450 4394 c-63 -70 -116 -132 -118 -138 -4 -16 125 -129 138 -121
18 11 10 29 -35 75 l-45 45 87 95 c47 52 95 105 106 117 16 19 18 25 7 38 -7
8 -15 15 -19 15 -3 0 -58 -57 -121 -126z"/>
<path d="M4626 4219 c-69 -61 -126 -116 -126 -123 0 -13 104 -139 119 -144 4
-1 13 3 19 10 8 10 -1 27 -39 70 l-49 56 49 41 49 41 41 -45 c23 -25 46 -45
51 -45 24 0 18 25 -19 69 l-40 48 40 39 40 39 52 -59 c45 -51 54 -57 65 -43
11 12 3 26 -49 86 -34 39 -65 71 -69 71 -4 0 -64 -50 -134 -111z"/>
<path d="M776 4192 c-31 -38 -56 -75 -56 -83 0 -15 251 -219 269 -219 12 0
121 132 121 148 0 5 -7 12 -15 16 -9 3 -29 -14 -57 -49 -24 -30 -45 -55 -49
-55 -3 0 -27 16 -52 36 l-47 36 20 27 c11 14 28 37 39 51 15 19 17 28 8 38 -9
12 -20 5 -57 -37 l-45 -51 -43 36 -42 36 38 46 c52 63 54 68 38 81 -12 10 -25
-1 -70 -57z"/>
<path d="M4873 3897 c-78 -51 -143 -97 -143 -103 0 -6 6 -16 13 -22 10 -9 46
10 151 78 76 48 143 93 148 98 11 11 0 42 -16 41 -6 0 -75 -42 -153 -92z"/>
<path d="M570 3901 c-9 -18 4 -28 123 -104 73 -46 143 -89 154 -96 20 -10 25
-5 67 62 50 80 54 92 31 101 -10 4 -26 -12 -50 -50 -22 -35 -41 -54 -49 -51
-8 3 -68 40 -135 81 -66 42 -123 76 -126 76 -2 0 -9 -9 -15 -19z"/>
<path d="M4953 3772 c-84 -42 -153 -81 -153 -87 0 -5 5 -17 10 -25 8 -13 29
-5 135 48 69 34 127 62 130 62 2 0 -36 -57 -85 -127 -89 -127 -103 -160 -76
-182 11 -9 46 4 170 66 86 43 156 82 156 88 0 6 -5 16 -11 22 -9 9 -42 -3
-131 -48 -66 -33 -121 -59 -123 -57 -2 2 37 59 86 127 49 69 89 130 89 136 0
14 -29 55 -38 54 -4 0 -76 -35 -159 -77z"/>
<path d="M461 3696 c-29 -63 -50 -119 -46 -125 13 -22 30 -10 48 34 11 25 22
45 27 45 4 0 69 -29 144 -65 75 -36 139 -65 141 -65 2 0 9 9 15 20 10 19 1 26
-135 90 l-146 70 21 39 c25 50 25 71 2 71 -14 0 -32 -30 -71 -114z"/>
<path d="M385 3528 c-23 -62 -75 -225 -75 -235 0 -7 8 -13 19 -13 13 0 22 12
31 45 7 25 17 45 23 45 6 0 75 -21 154 -47 78 -26 144 -45 147 -43 2 3 6 13 8
24 2 15 -19 26 -142 68 -79 27 -147 51 -149 54 -3 3 3 25 12 50 9 26 14 50 11
55 -8 13 -34 11 -39 -3z"/>
<path d="M5112 3431 c-85 -27 -156 -51 -158 -54 -8 -8 23 -104 47 -147 23 -41
85 -80 125 -80 50 0 130 34 166 70 36 36 38 41 37 101 0 71 -26 153 -49 156
-8 1 -84 -20 -168 -46z m177 -101 c1 -20 -6 -46 -15 -58 -42 -61 -173 -86
-219 -42 -30 29 -60 109 -42 116 7 2 66 21 132 42 l120 38 12 -30 c6 -17 12
-47 12 -66z"/>
<path d="M450 3151 c-91 -15 -171 -31 -178 -35 -7 -4 -12 -18 -12 -31 0 -21
24 -39 161 -121 124 -73 164 -93 170 -82 15 23 10 33 -37 61 -33 20 -44 32
-40 45 3 9 8 35 12 57 10 62 21 75 59 75 35 0 69 24 62 44 -6 17 -19 16 -197
-13z m35 -105 c-4 -31 -10 -56 -14 -56 -3 0 -39 20 -79 45 l-74 44 34 6 c61
11 133 21 136 19 2 -1 1 -27 -3 -58z"/>
<path d="M5210 3084 c-91 -18 -166 -33 -167 -34 -7 -1 -2 -39 5 -43 4 -2 84
11 177 29 94 18 171 33 173 33 8 2 -4 45 -13 46 -5 2 -84 -12 -175 -31z"/>
<path d="M5062 2938 c2 -17 14 -26 49 -35 45 -13 47 -15 53 -60 13 -94 10
-101 -39 -125 -43 -21 -59 -48 -36 -63 10 -5 326 136 344 154 5 5 7 20 4 33
-6 21 -25 28 -184 71 -98 26 -182 47 -186 47 -5 0 -7 -10 -5 -22z m238 -83
c36 -9 67 -19 69 -21 2 -2 -31 -20 -73 -40 -43 -19 -79 -34 -81 -32 -1 2 -5
29 -8 61 -5 51 -4 57 11 53 9 -3 46 -12 82 -21z"/>
<path d="M414 2835 l-25 -25 -29 22 c-25 18 -35 20 -67 12 -53 -13 -74 -57
-71 -144 l3 -65 163 -8 c90 -5 170 -6 178 -3 11 4 14 26 14 91 0 82 -1 88 -29
116 -39 39 -100 41 -137 4z m108 -42 c13 -12 18 -30 18 -70 l0 -53 -42 0 c-81
0 -88 6 -81 59 3 25 13 54 21 64 19 22 60 22 84 0z m-178 -4 c27 -13 42 -55
31 -89 -5 -17 -15 -20 -61 -20 l-54 0 0 40 c0 27 7 47 20 60 23 23 30 24 64 9z"/>
<path d="M4976 2443 c-14 -14 -5 -43 13 -43 11 0 104 -9 208 -19 284 -30 267
-30 271 -3 2 13 -2 22 -10 22 -17 0 -402 38 -445 44 -17 2 -34 2 -37 -1z"/>
<path d="M455 2324 c-240 -35 -255 -38 -255 -51 1 -30 21 -30 245 3 127 18
236 34 243 34 6 0 12 11 12 25 0 14 -3 25 -7 24 -5 -1 -111 -16 -238 -35z"/>
<path d="M5016 2113 c-4 -9 -3 -19 1 -23 12 -11 336 -89 345 -84 4 3 8 13 8
23 0 16 -27 25 -165 60 -90 22 -169 41 -174 41 -5 0 -12 -8 -15 -17z"/>
<path d="M515 2038 c-19 -17 -28 -38 -35 -81 -5 -33 -12 -67 -15 -78 -7 -21
-46 -35 -70 -25 -21 8 -38 55 -31 89 5 25 3 28 -17 25 -41 -6 -36 -84 9 -137
21 -25 34 -31 64 -31 60 0 88 31 102 110 13 75 30 100 69 100 39 0 59 -33 59
-97 0 -40 4 -53 15 -53 46 0 42 110 -7 165 -26 30 -36 35 -73 35 -31 0 -51 -7
-70 -22z"/>
<path d="M4985 1989 c-9 -27 -7 -28 137 -81 65 -24 118 -45 118 -48 0 -3 -64
-14 -142 -24 -165 -22 -184 -27 -193 -57 -9 -28 -10 -27 173 -95 111 -42 156
-54 164 -46 22 22 -2 39 -116 82 -64 24 -119 46 -121 50 -2 3 62 14 143 24 81
9 152 23 159 29 7 7 14 23 15 37 3 23 -7 28 -162 87 -91 35 -166 63 -167 63
-1 0 -5 -10 -8 -21z"/>
<path d="M549 1763 c-102 -53 -124 -129 -70 -248 17 -36 36 -65 44 -65 18 0
303 135 310 147 10 16 -53 131 -88 162 -48 42 -117 43 -196 4z m169 -39 c23
-16 67 -92 58 -101 -2 -3 -59 -31 -125 -64 l-121 -58 -13 32 c-33 80 -29 118
18 159 55 47 140 63 183 32z"/>
<path d="M4829 1624 c-61 -108 -50 -194 33 -254 80 -58 159 -63 217 -14 32 26
91 122 91 145 0 12 -262 168 -296 177 -7 2 -27 -23 -45 -54z m170 -71 l119
-68 -19 -37 c-11 -21 -31 -46 -46 -55 -76 -50 -223 28 -223 118 0 22 37 109
46 109 3 0 58 -30 123 -67z"/>
<path d="M727 1429 c-131 -90 -146 -102 -137 -120 6 -10 13 -19 16 -19 4 0 55
34 115 75 60 41 112 75 115 75 3 0 -27 -61 -66 -136 -63 -120 -71 -139 -61
-160 6 -14 17 -27 25 -30 12 -5 243 144 289 186 10 9 -2 40 -16 40 -6 0 -64
-36 -130 -81 l-118 -81 75 144 c42 80 76 151 76 160 0 8 -8 22 -18 31 -17 16
-27 11 -165 -84z"/>
<path d="M4670 1375 c-7 -9 -11 -17 -9 -19 22 -20 283 -206 289 -206 10 0 34
29 29 35 -15 14 -283 205 -289 205 -4 0 -13 -7 -20 -15z"/>
<path d="M4620 1305 c-11 -14 -10 -23 8 -61 26 -52 23 -60 -36 -118 l-40 -38
-47 17 c-43 17 -47 17 -63 1 -22 -22 -25 -21 177 -101 155 -63 164 -65 182
-49 11 9 19 21 19 25 0 9 -168 320 -179 332 -4 4 -14 1 -21 -8z m138 -300 c-3
-3 -147 53 -157 61 -2 2 13 24 34 50 l38 46 44 -77 c25 -42 43 -78 41 -80z"/>
<path d="M1023 1187 c-11 -7 -62 -52 -113 -100 -74 -72 -89 -91 -79 -103 6 -8
15 -14 19 -14 4 0 50 41 103 90 82 76 102 90 131 90 66 0 110 -65 80 -121 -7
-15 -52 -63 -100 -107 -60 -56 -85 -85 -81 -96 12 -30 36 -16 136 82 98 95
101 99 101 142 0 105 -113 184 -197 137z"/>
<path d="M4293 973 c-21 -8 -15 -25 37 -93 26 -36 48 -66 47 -67 -1 -1 -52 12
-112 29 l-109 30 -17 -21 c-10 -12 -22 -21 -27 -21 -23 0 -31 -26 -21 -70 8
-33 7 -45 -3 -51 -7 -5 -36 -22 -65 -39 l-52 -30 -34 30 c-37 32 -58 37 -75
17 -8 -9 21 -39 120 -122 173 -145 163 -138 188 -123 26 16 26 20 -10 216 -17
90 -29 166 -28 168 2 2 33 -5 68 -16 36 -10 85 -24 109 -30 l44 -12 -6 -97
c-4 -54 -4 -101 -1 -104 4 -3 15 -2 25 4 17 8 19 23 19 117 l1 107 22 -25 c12
-14 36 -44 54 -65 30 -37 33 -39 49 -23 15 15 9 25 -92 157 -60 78 -111 141
-114 140 -3 0 -11 -3 -17 -6z m-175 -350 c27 -125 27 -128 5 -112 -11 8 -42
33 -69 57 -39 35 -46 45 -34 52 8 5 29 18 45 29 17 11 33 20 37 20 3 1 11 -20
16 -46z"/>
<path d="M1315 950 c-41 -9 -79 -35 -108 -73 -81 -107 -76 -191 15 -257 43
-32 101 -40 151 -21 62 24 137 131 137 196 0 95 -102 177 -195 155z m85 -55
c61 -31 75 -86 41 -154 -22 -41 -78 -95 -110 -106 -54 -17 -131 40 -131 97 0
70 92 177 153 178 10 0 31 -7 47 -15z"/>
<path d="M1584 775 c-3 -14 -7 -56 -8 -94 l-1 -70 -32 -6 c-62 -11 -94 -91
-57 -143 17 -25 110 -82 134 -82 9 0 48 59 98 149 45 81 82 151 82 154 0 4 -9
11 -20 17 -17 9 -23 3 -57 -60 -21 -38 -42 -70 -46 -70 -4 0 -19 11 -33 26
-25 24 -26 28 -19 106 6 63 4 82 -6 89 -22 14 -28 11 -35 -16z m39 -221 c18
-9 34 -18 36 -20 3 -2 -42 -87 -55 -102 -4 -5 -57 30 -71 47 -19 22 -16 48 7
71 24 24 41 25 83 4z"/>
<path d="M1855 621 c-15 -26 -55 -143 -50 -151 8 -13 115 -51 126 -45 20 13 7
34 -26 45 -19 6 -37 15 -40 20 -7 12 28 100 40 100 30 0 84 -23 104 -44 52
-56 29 -183 -41 -226 -56 -34 -109 -25 -170 29 -36 31 -48 31 -48 1 0 -41 88
-90 162 -90 101 0 169 72 176 186 6 83 -19 126 -92 160 -51 24 -130 32 -141
15z"/>
<path d="M3628 592 c-102 -34 -141 -102 -98 -170 13 -21 31 -35 50 -38 25 -5
28 -9 20 -25 -27 -49 18 -129 73 -129 26 0 137 36 149 48 4 4 -18 80 -50 167
-64 178 -61 176 -144 147z m70 -88 l20 -56 -34 -14 c-39 -16 -68 -18 -94 -4
-20 11 -33 51 -23 75 6 16 75 54 99 55 6 0 20 -25 32 -56z m54 -151 c10 -27
13 -52 8 -57 -4 -4 -29 -11 -54 -13 -41 -5 -46 -3 -57 20 -17 36 -4 73 28 85
49 18 57 14 75 -35z"/>
<path d="M2177 520 c-5 -20 12 -28 101 -46 18 -4 34 -10 37 -14 4 -6 -20 -108
-27 -116 -2 -2 -30 3 -62 10 -50 12 -58 12 -63 -1 -7 -18 11 -30 57 -38 57
-10 59 -14 48 -73 -7 -32 -15 -51 -22 -49 -43 17 -129 28 -139 18 -7 -7 -8
-14 -1 -21 13 -13 178 -50 185 -42 12 13 81 321 76 336 -3 8 -37 21 -79 30
-40 9 -80 19 -89 22 -11 3 -18 -3 -22 -16z"/>
<path d="M3427 523 c-4 -3 -7 -21 -7 -39 0 -55 -7 -62 -82 -75 -71 -13 -72
-13 -87 11 -34 51 -46 61 -64 54 -24 -9 -22 -13 86 -186 53 -86 98 -148 107
-148 35 1 43 19 60 141 34 241 34 249 13 249 -11 0 -23 -3 -26 -7z m-29 -215
c-4 -40 -9 -82 -11 -93 -1 -14 -17 5 -49 60 l-47 80 42 12 c76 20 74 22 65
-59z"/>
<path d="M2417 466 c-8 -21 4 -26 69 -33 30 -3 56 -9 59 -13 2 -3 -5 -73 -15
-155 -11 -81 -17 -152 -14 -156 7 -12 44 -12 44 0 0 5 9 76 20 157 11 82 20
159 20 170 0 25 -13 29 -111 39 -55 6 -67 4 -72 -9z"/>
<path d="M3015 403 c29 -292 32 -273 -42 -273 -37 0 -43 -3 -43 -21 0 -21 2
-22 103 -15 147 10 167 14 167 39 0 18 -5 19 -55 14 -30 -3 -55 -3 -55 1 0 4
-7 72 -15 152 -8 80 -15 148 -15 153 0 4 -11 7 -25 7 -26 0 -26 -1 -20 -57z"/>
<path d="M2750 373 c0 -43 -3 -115 -7 -160 l-6 -83 -53 0 c-47 0 -54 -2 -54
-20 0 -19 7 -20 110 -21 61 -1 120 -2 133 -2 16 -1 23 5 25 21 3 20 0 22 -52
22 l-56 0 7 160 6 160 -26 0 c-27 0 -27 0 -27 -77z"/>
</g>
</svg>
